<svg xmlns="http://www.w3.org/2000/svg" viewBox="0 0 191.42 256.78"><defs><style>.cls-1{fill:#231f20;}</style></defs><title>Fichier 1</title><g id="Calque_2" data-name="Calque 2"><g id="Calque_1-2" data-name="Calque 1"><polyline class="cls-1" points="191.42 90.84 156.5 143.24 133.14 123.11 167.7 67.71"/><polyline class="cls-1" points="40.61 255.83 44.69 193.55 74.25 193.68 38.57 181.78 0 114.31 31.42 41.87 61.54 55.66 106.48 67.4 91.16 88.85 36.52 78.12 52.86 89.36 37.03 97.02 63.84 96 96.27 124.08 96.78 178.21 108.52 134.81 114.14 156.51 113.12 126.27 133.42 136.85 137.63 131.74 158.34 147.62 169.57 123.63 156.52 205.27 111.02 203.28 109.35 202.61 93.71 185.66 88.35 256.34 88.34 256.78 40.61 255.83"/><polyline class="cls-1" points="171.78 52.48 127.21 126.72 100.75 118.52 144.72 29.05"/><polygon class="cls-1" points="151.1 207.88 147.33 256.34 88.35 256.34 96.52 194.35 109.27 207.61 151.1 207.88"/><polyline class="cls-1" points="144.46 22.26 96.52 117.5 72.97 92.99 92.89 94.52 109.27 65.54 83.57 58.65 108.72 4.37"/><polyline class="cls-1" points="102.52 7.66 78.68 58.09 49.4 47.71 69.71 0"/><polyline class="cls-1" points="82.08 48.73 49.4 47.71 60.92 53.78 78.68 58.09"/></g></g></svg>